<svg preserveAspectRatio="none" width="100%" height="100%" overflow="visible" style="display: block;" viewBox="0 0 176 209.256" fill="none" xmlns="http://www.w3.org/2000/svg">
<g id="Slot ">
<path id="Union" d="M72.8213 71.7185L69.6758 71.7292V69.8962C68.3481 71.2225 66.3028 71.9665 64.0303 71.9666C61.9131 71.9666 60.1422 71.3418 58.9102 70.2312C57.6662 69.1206 56.9844 67.5244 56.9844 65.616C56.9844 63.7938 57.6424 62.2518 58.9102 61.1736C60.1541 60.1061 61.9133 59.5564 63.9707 59.5564C66.0159 59.5565 67.9178 60.2141 69.377 61.4109V55.3074L72.8213 55.0593V71.7185ZM84.0879 59.5554C89.4705 59.5554 91.4202 63.0493 91.4082 64.947C91.4082 65.3349 91.3249 65.6367 91.0859 65.8416C90.8587 66.0464 90.5112 66.1111 90.1045 66.1111H79.8535C80.021 67.4697 80.7155 68.5049 81.6963 69.2058C82.7368 69.9389 84.1 70.3278 85.583 70.3279C87.3892 70.3279 88.9926 69.961 90.6074 69.3572L90.7744 69.2927L91.3848 70.6189L91.2168 70.6833C88.8486 71.6321 86.7191 71.9666 84.291 71.9666C82.222 71.9665 80.2607 71.4381 78.8135 70.3816C77.3663 69.325 76.4455 67.7291 76.4453 65.6267C76.4453 62.1332 80.1288 59.5555 84.0879 59.5554ZM137.113 59.5554C139.481 59.5555 141.526 60.1054 143.021 61.1619C144.565 62.2725 145.39 63.8687 145.39 65.7556C145.39 67.6318 144.576 69.228 143.021 70.3386C141.538 71.4059 139.481 71.9665 137.113 71.9666C134.733 71.9666 132.675 71.406 131.168 70.3386C129.601 69.228 128.775 67.6426 128.775 65.7556C128.775 63.8687 129.601 62.2725 131.168 61.1619C132.663 60.1052 134.733 59.5554 137.113 59.5554ZM27.751 59.5554C33.1333 59.5556 35.0713 63.0494 35.0713 64.9363C35.0713 65.3243 34.9871 65.626 34.748 65.8308C34.5089 66.0356 34.1741 66.1003 33.7676 66.1003H23.5039C23.6833 67.4589 24.3658 68.4942 25.3467 69.1951C26.3753 69.9389 27.7504 70.3171 29.2334 70.3171C31.0396 70.3171 32.643 69.9503 34.2578 69.3464L34.4248 69.282L35.0352 70.6082L34.8672 70.6726C32.4991 71.6321 30.3702 71.9558 27.9424 71.9558C25.8732 71.9558 23.9112 71.4274 22.4639 70.3708C21.1242 69.3896 20.239 67.955 20.1074 66.0896H16.2197L17.0928 64.6238H20.2031C20.8251 61.6478 24.1865 59.5554 27.751 59.5554ZM102.521 59.5554C104.829 59.5554 106.493 59.7927 107.533 60.3103C108.071 60.5583 108.478 60.8928 108.741 61.3132C109.004 61.7229 109.124 62.2193 109.124 62.8015V71.7185H105.966V69.7878C104.267 71.5778 102.126 71.9558 100.428 71.9558C98.6695 71.9558 97.1866 71.6426 96.1699 71.0173C95.0934 70.3596 94.543 69.3892 94.543 68.1492C94.543 67.0279 95.0334 66.0794 95.9424 65.3894C96.8395 64.6993 98.1435 64.2679 99.7344 64.1277C101.211 64.0311 105.649 63.7949 105.69 63.7927V62.9304C105.69 62.6394 105.631 62.3911 105.499 62.1863C105.379 61.9924 105.176 61.8195 104.89 61.6794C104.304 61.3991 103.358 61.2595 101.959 61.2595C100.189 61.2595 98.2983 61.3455 96.2051 61.5935L96.0615 61.615L95.4873 60.2888L95.7031 60.2458C97.9875 59.8146 100.38 59.5555 102.521 59.5554ZM42.25 61.8093C42.8361 61.1517 43.6372 60.6018 44.582 60.2136C45.6466 59.7823 46.8669 59.5554 48.1348 59.5554C49.8212 59.5555 51.2089 59.9219 52.1777 60.6443C53.1346 61.3667 53.6367 62.4238 53.6367 63.696V71.7292H50.1924V64.5154C50.1923 63.5668 49.8808 62.7907 49.3428 62.2625C48.8046 61.7342 48.0151 61.4315 47.0225 61.4314C45.5512 61.4314 44.3664 61.8205 43.541 62.489C42.716 63.1575 42.25 64.1061 42.25 65.2488V71.7292H38.8047V59.7927L42.25 59.5447V61.8093ZM120.44 68.6882L125.68 59.7927H127.988L120.955 71.7292H118.275L111.386 59.7927H115.356L120.44 68.6882ZM152.042 62.3914C153.262 60.6339 155.403 59.5554 157.724 59.5554C158.322 59.5554 159.123 59.5884 159.529 59.6423L159.78 59.6746L158.74 61.4753H158.094C157.388 61.4753 156.778 61.4863 155.941 61.7126C154.841 62.0146 154.231 62.4995 153.346 63.3621C152.496 64.1815 152.042 65.3462 152.042 66.7156V71.7292H148.597V59.7927L152.042 59.5447V62.3914ZM137.089 61.1082C135.725 61.1082 134.565 61.6579 133.728 62.4666C132.902 63.2645 132.376 64.3864 132.376 65.7126C132.376 67.0604 132.89 68.193 133.728 69.0125C134.565 69.8318 135.725 70.3923 137.089 70.3923C138.44 70.3923 139.6 69.8317 140.426 69.0125C141.251 68.2038 141.766 67.0712 141.754 65.7126C141.754 63.017 139.828 61.1082 137.089 61.1082ZM64.8438 61.2595C63.6119 61.2595 62.5592 61.745 61.8057 62.532C61.0641 63.3191 60.5853 64.4082 60.5732 65.6804C60.5732 67.0498 61.0277 68.1931 61.7812 68.991C62.5348 69.7889 63.5995 70.2527 64.8555 70.2527C66.207 70.2527 67.3431 69.7887 68.1445 69.0017C68.9459 68.2038 69.4248 67.082 69.4248 65.7341C69.4247 64.4296 68.9217 63.319 68.1084 62.532C67.2951 61.7451 66.1592 61.2596 64.8438 61.2595ZM105.703 65.1843C105.703 65.1843 102.042 65.3998 100.834 65.4861C99.9849 65.5616 99.3031 65.8313 98.8486 66.2517C98.3943 66.6721 98.131 67.2435 98.1309 67.9441C98.1309 68.6448 98.4422 69.1732 99.04 69.5291C99.6142 69.8633 100.452 70.0466 101.54 70.0466C102.88 70.0466 103.753 69.7125 104.53 69.2273C105.284 68.7421 105.703 68.1171 105.703 67.5457V65.1843ZM27.7627 61.0544C26.4353 61.0544 25.4305 61.5071 24.7129 62.2078C24.067 62.8547 23.6601 63.7288 23.5166 64.6238H30.1426C30.8001 64.6238 31.207 64.5372 31.4463 64.408C31.6615 64.2894 31.7578 64.106 31.7578 63.8689C31.7578 62.5966 30.2506 61.0545 27.7627 61.0544ZM84.124 61.0544C82.7965 61.0544 81.7799 61.5179 81.0742 62.2078C80.4044 62.8547 80.0097 63.718 79.8662 64.6238H86.4922C87.162 64.6346 87.5694 64.5481 87.8086 64.408C88.0356 64.2894 88.1191 64.1059 88.1191 63.8689C88.1191 62.5966 86.6 61.0544 84.124 61.0544Z" fill="var(--fill-0, white)"/>
<path id="Union_2" d="M72.8213 209.008L69.6758 209.019V207.186C68.3481 208.512 66.3028 209.256 64.0303 209.256C61.9131 209.256 60.1422 208.631 58.9102 207.521C57.6662 206.41 56.9844 204.814 56.9844 202.906C56.9844 201.083 57.6425 199.541 58.9102 198.463C60.1541 197.396 61.9133 196.846 63.9707 196.846C66.0159 196.846 67.9178 197.504 69.377 198.7V192.597L72.8213 192.349V209.008ZM84.0879 196.845C89.4705 196.845 91.4202 200.339 91.4082 202.237C91.4082 202.624 91.3249 202.926 91.0859 203.131C90.8587 203.336 90.5112 203.401 90.1045 203.401H79.8535C80.021 204.759 80.7155 205.794 81.6963 206.495C82.7368 207.228 84.1 207.616 85.583 207.616C87.3892 207.616 88.9926 207.251 90.6074 206.647L90.7744 206.581L91.3848 207.908L91.2168 207.973C88.8486 208.922 86.7191 209.256 84.291 209.256C82.222 209.256 80.2607 208.728 78.8135 207.671C77.3662 206.614 76.4453 205.018 76.4453 202.915C76.4456 199.422 80.1289 196.845 84.0879 196.845ZM137.113 196.845C139.481 196.845 141.526 197.395 143.021 198.451C144.565 199.562 145.39 201.158 145.39 203.045C145.39 204.921 144.576 206.517 143.021 207.627C141.538 208.695 139.481 209.256 137.113 209.256C134.733 209.256 132.675 208.695 131.168 207.627C129.601 206.517 128.775 204.932 128.775 203.045C128.775 201.158 129.601 199.562 131.168 198.451C132.663 197.395 134.733 196.845 137.113 196.845ZM27.751 196.845C33.1333 196.845 35.0713 200.339 35.0713 202.226C35.0713 202.614 34.9871 202.916 34.748 203.12C34.5089 203.325 34.1741 203.39 33.7676 203.39H23.5039C23.6833 204.748 24.3658 205.784 25.3467 206.485C26.3752 207.228 27.7504 207.606 29.2334 207.606C31.0396 207.606 32.643 207.24 34.2578 206.636L34.4248 206.571L35.0352 207.898L34.8672 207.962C32.4991 208.922 30.3702 209.245 27.9424 209.245C25.8732 209.245 23.9112 208.717 22.4639 207.66C21.1242 206.679 20.239 205.245 20.1074 203.379H16.2197L17.0928 201.913H20.2031C20.8251 198.937 24.1865 196.845 27.751 196.845ZM102.521 196.845C104.829 196.845 106.493 197.082 107.533 197.6C108.071 197.848 108.478 198.182 108.741 198.603C109.004 199.012 109.124 199.509 109.124 200.091V209.008H105.966V207.077C104.267 208.867 102.126 209.245 100.428 209.245C98.6696 209.245 97.1866 208.932 96.1699 208.307C95.0934 207.649 94.543 206.679 94.543 205.439C94.543 204.317 95.0333 203.368 95.9424 202.678C96.8395 201.988 98.1437 201.557 99.7344 201.417C101.211 201.321 105.648 201.085 105.69 201.082V200.22C105.69 199.929 105.631 199.681 105.499 199.476C105.379 199.282 105.176 199.109 104.89 198.969C104.304 198.689 103.358 198.549 101.959 198.549C100.189 198.549 98.2983 198.635 96.2051 198.883L96.0615 198.905L95.4873 197.578L95.7031 197.535C97.9876 197.104 100.38 196.845 102.521 196.845ZM42.25 199.099C42.8361 198.441 43.6372 197.891 44.582 197.503C45.6466 197.072 46.8669 196.845 48.1348 196.845C49.8212 196.845 51.2089 197.211 52.1777 197.934C53.1346 198.656 53.6367 199.713 53.6367 200.986V209.019H50.1924V201.805C50.1923 200.856 49.8808 200.08 49.3428 199.552C48.8046 199.024 48.0151 198.721 47.0225 198.721C45.5512 198.721 44.3664 199.109 43.541 199.778C42.7157 200.446 42.25 201.395 42.25 202.538V209.019H38.8047V197.082L42.25 196.834V199.099ZM120.44 205.978L125.68 197.082H127.988L120.955 209.019H118.275L111.386 197.082H115.356L120.44 205.978ZM152.042 199.681C153.262 197.923 155.403 196.845 157.724 196.845C158.322 196.845 159.123 196.878 159.529 196.932L159.78 196.964L158.74 198.765H158.094C157.388 198.765 156.778 198.775 155.941 199.001C154.841 199.303 154.231 199.789 153.346 200.652C152.496 201.471 152.042 202.636 152.042 204.005V209.019H148.597V197.082L152.042 196.834V199.681ZM137.089 198.398C135.725 198.398 134.565 198.947 133.728 199.756C132.902 200.554 132.376 201.676 132.376 203.002C132.376 204.35 132.89 205.482 133.728 206.301C134.565 207.12 135.725 207.682 137.089 207.682C138.441 207.682 139.6 207.121 140.426 206.301C141.251 205.492 141.766 204.361 141.754 203.002C141.754 200.307 139.828 198.398 137.089 198.398ZM64.8438 198.549C63.6118 198.549 62.5592 199.035 61.8057 199.822C61.0641 200.609 60.5852 201.698 60.5732 202.97C60.5732 204.339 61.0277 205.483 61.7812 206.281C62.5348 207.078 63.5996 207.542 64.8555 207.542C66.207 207.542 67.3431 207.078 68.1445 206.291C68.9459 205.493 69.4248 204.372 69.4248 203.024C69.4247 201.719 68.9217 200.609 68.1084 199.822C67.2951 199.035 66.1592 198.549 64.8438 198.549ZM105.703 202.474C105.703 202.474 102.042 202.689 100.834 202.776C99.9849 202.851 99.3031 203.121 98.8486 203.541C98.3943 203.962 98.1309 204.533 98.1309 205.234C98.1309 205.934 98.4422 206.463 99.04 206.819C99.6142 207.153 100.452 207.336 101.54 207.336C102.88 207.336 103.753 207.002 104.53 206.517C105.284 206.032 105.703 205.407 105.703 204.835V202.474ZM27.7627 198.344C26.4352 198.344 25.4305 198.797 24.7129 199.497C24.067 200.144 23.6601 201.018 23.5166 201.913H30.1426C30.8001 201.913 31.207 201.827 31.4463 201.698C31.6615 201.579 31.7577 201.396 31.7578 201.158C31.7578 199.886 30.2506 198.344 27.7627 198.344ZM84.124 198.344C82.7965 198.344 81.7799 198.807 81.0742 199.497C80.4044 200.144 80.0097 201.008 79.8662 201.913H86.4922C87.162 201.924 87.5694 201.838 87.8086 201.698C88.0356 201.579 88.1191 201.395 88.1191 201.158C88.1191 199.886 86.6 198.344 84.124 198.344Z" fill="var(--fill-0, white)"/>
</g>
</svg>
