<svg xmlns="http://www.w3.org/2000/svg" viewBox="0 0 1200 800" width="1200" height="800">
  <g transform="translate(40.961 -875.644) scale(6.35273)">
    <path id="Union_2" d="M72.8213 209.008L69.6758 209.019V207.186C68.3481 208.512 66.3028 209.256 64.0303 209.256C61.9131 209.256 60.1422 208.631 58.9102 207.521C57.6662 206.41 56.9844 204.814 56.9844 202.906C56.9844 201.083 57.6425 199.541 58.9102 198.463C60.1541 197.396 61.9133 196.846 63.9707 196.846C66.0159 196.846 67.9178 197.504 69.377 198.7V192.597L72.8213 192.349V209.008ZM84.0879 196.845C89.4705 196.845 91.4202 200.339 91.4082 202.237C91.4082 202.624 91.3249 202.926 91.0859 203.131C90.8587 203.336 90.5112 203.401 90.1045 203.401H79.8535C80.021 204.759 80.7155 205.794 81.6963 206.495C82.7368 207.228 84.1 207.616 85.583 207.616C87.3892 207.616 88.9926 207.251 90.6074 206.647L90.7744 206.581L91.3848 207.908L91.2168 207.973C88.8486 208.922 86.7191 209.256 84.291 209.256C82.222 209.256 80.2607 208.728 78.8135 207.671C77.3662 206.614 76.4453 205.018 76.4453 202.915C76.4456 199.422 80.1289 196.845 84.0879 196.845ZM137.113 196.845C139.481 196.845 141.526 197.395 143.021 198.451C144.565 199.562 145.39 201.158 145.39 203.045C145.39 204.921 144.576 206.517 143.021 207.627C141.538 208.695 139.481 209.256 137.113 209.256C134.733 209.256 132.675 208.695 131.168 207.627C129.601 206.517 128.775 204.932 128.775 203.045C128.775 201.158 129.601 199.562 131.168 198.451C132.663 197.395 134.733 196.845 137.113 196.845ZM27.751 196.845C33.1333 196.845 35.0713 200.339 35.0713 202.226C35.0713 202.614 34.9871 202.916 34.748 203.12C34.5089 203.325 34.1741 203.39 33.7676 203.39H23.5039C23.6833 204.748 24.3658 205.784 25.3467 206.485C26.3752 207.228 27.7504 207.606 29.2334 207.606C31.0396 207.606 32.643 207.24 34.2578 206.636L34.4248 206.571L35.0352 207.898L34.8672 207.962C32.4991 208.922 30.3702 209.245 27.9424 209.245C25.8732 209.245 23.9112 208.717 22.4639 207.66C21.1242 206.679 20.239 205.245 20.1074 203.379H16.2197L17.0928 201.913H20.2031C20.8251 198.937 24.1865 196.845 27.751 196.845ZM102.521 196.845C104.829 196.845 106.493 197.082 107.533 197.6C108.071 197.848 108.478 198.182 108.741 198.603C109.004 199.012 109.124 199.509 109.124 200.091V209.008H105.966V207.077C104.267 208.867 102.126 209.245 100.428 209.245C98.6696 209.245 97.1866 208.932 96.1699 208.307C95.0934 207.649 94.543 206.679 94.543 205.439C94.543 204.317 95.0333 203.368 95.9424 202.678C96.8395 201.988 98.1437 201.557 99.7344 201.417C101.211 201.321 105.648 201.085 105.69 201.082V200.22C105.69 199.929 105.631 199.681 105.499 199.476C105.379 199.282 105.176 199.109 104.89 198.969C104.304 198.689 103.358 198.549 101.959 198.549C100.189 198.549 98.2983 198.635 96.2051 198.883L96.0615 198.905L95.4873 197.578L95.7031 197.535C97.9876 197.104 100.38 196.845 102.521 196.845ZM42.25 199.099C42.8361 198.441 43.6372 197.891 44.582 197.503C45.6466 197.072 46.8669 196.845 48.1348 196.845C49.8212 196.845 51.2089 197.211 52.1777 197.934C53.1346 198.656 53.6367 199.713 53.6367 200.986V209.019H50.1924V201.805C50.1923 200.856 49.8808 200.08 49.3428 199.552C48.8046 199.024 48.0151 198.721 47.0225 198.721C45.5512 198.721 44.3664 199.109 43.541 199.778C42.7157 200.446 42.25 201.395 42.25 202.538V209.019H38.8047V197.082L42.25 196.834V199.099ZM120.44 205.978L125.68 197.082H127.988L120.955 209.019H118.275L111.386 197.082H115.356L120.44 205.978ZM152.042 199.681C153.262 197.923 155.403 196.845 157.724 196.845C158.322 196.845 159.123 196.878 159.529 196.932L159.78 196.964L158.74 198.765H158.094C157.388 198.765 156.778 198.775 155.941 199.001C154.841 199.303 154.231 199.789 153.346 200.652C152.496 201.471 152.042 202.636 152.042 204.005V209.019H148.597V197.082L152.042 196.834V199.681ZM137.089 198.398C135.725 198.398 134.565 198.947 133.728 199.756C132.902 200.554 132.376 201.676 132.376 203.002C132.376 204.35 132.89 205.482 133.728 206.301C134.565 207.12 135.725 207.682 137.089 207.682C138.441 207.682 139.6 207.121 140.426 206.301C141.251 205.492 141.766 204.361 141.754 203.002C141.754 200.307 139.828 198.398 137.089 198.398ZM64.8438 198.549C63.6118 198.549 62.5592 199.035 61.8057 199.822C61.0641 200.609 60.5852 201.698 60.5732 202.97C60.5732 204.339 61.0277 205.483 61.7812 206.281C62.5348 207.078 63.5996 207.542 64.8555 207.542C66.207 207.542 67.3431 207.078 68.1445 206.291C68.9459 205.493 69.4248 204.372 69.4248 203.024C69.4247 201.719 68.9217 200.609 68.1084 199.822C67.2951 199.035 66.1592 198.549 64.8438 198.549ZM105.703 202.474C105.703 202.474 102.042 202.689 100.834 202.776C99.9849 202.851 99.3031 203.121 98.8486 203.541C98.3943 203.962 98.1309 204.533 98.1309 205.234C98.1309 205.934 98.4422 206.463 99.04 206.819C99.6142 207.153 100.452 207.336 101.54 207.336C102.88 207.336 103.753 207.002 104.53 206.517C105.284 206.032 105.703 205.407 105.703 204.835V202.474ZM27.7627 198.344C26.4352 198.344 25.4305 198.797 24.7129 199.497C24.067 200.144 23.6601 201.018 23.5166 201.913H30.1426C30.8001 201.913 31.207 201.827 31.4463 201.698C31.6615 201.579 31.7577 201.396 31.7578 201.158C31.7578 199.886 30.2506 198.344 27.7627 198.344ZM84.124 198.344C82.7965 198.344 81.7799 198.807 81.0742 199.497C80.4044 200.144 80.0097 201.008 79.8662 201.913H86.4922C87.162 201.924 87.5694 201.838 87.8086 201.698C88.0356 201.579 88.1191 201.395 88.1191 201.158C88.1191 199.886 86.6 198.344 84.124 198.344Z" fill="#ffffff"/>
  </g>
</svg>
