<svg xmlns="http://www.w3.org/2000/svg" viewBox="0 0 1200 800" width="1200" height="800">
  <g transform="translate(144.000 251.616) scale(8.20919)">
    <path id="Vector" fill-rule="evenodd" clip-rule="evenodd" d="M37.9399 9.98973C32.6221 9.98973 28.8092 14.1166 28.8092 18.9327C28.8092 23.8159 32.5066 28.0203 38.0024 28.0203C42.9791 28.0203 47.0549 24.2467 47.0549 19.0257C47.0549 13.0482 42.3125 9.98111 37.9416 9.98111L37.9399 9.98973ZM57.7964 9.98973C52.4847 9.98973 48.6744 14.1166 48.6744 18.9327C48.6744 23.8159 52.3718 28.0203 57.8684 28.0203C62.833 28.0203 66.9123 24.2467 66.9123 19.0257C66.9123 13.0482 62.1734 9.98111 57.799 9.98111L57.8042 9.98973H57.7964ZM88.634 27.4948H92.6351V0.915837H88.634V27.4948ZM77.6277 13.535C80.0232 13.535 82.4795 15.5666 82.4795 19.03C82.4795 22.5624 80.0267 24.4923 77.5739 24.4923C74.9701 24.4923 72.5512 22.4073 72.5512 19.0645C72.5512 15.601 75.0682 13.5333 77.6286 13.5333L77.6277 13.535ZM37.9937 13.535C40.6096 13.535 43.0884 15.6355 43.0884 19.0128C43.0884 22.3384 40.62 24.4923 37.9815 24.4923C35.0913 24.4923 32.8 22.1945 32.8 18.9956C32.8 15.8767 35.0566 13.5479 37.9989 13.5479V13.5342L37.9937 13.535ZM57.8502 13.535C60.4653 13.535 62.945 15.6355 62.945 19.0128C62.945 22.3384 60.4757 24.4923 57.838 24.4923C54.9392 24.4923 52.6478 22.1945 52.6478 18.9956C52.6478 15.8767 54.9044 13.5479 57.838 13.5479L57.8467 13.5342L57.8502 13.535ZM102.908 9.98542C98.3053 9.98542 94.437 13.6212 94.437 18.9956C94.437 24.6775 98.7471 28.0419 103.352 28.0419C107.18 28.0419 109.541 25.9569 110.947 24.0873L107.805 22.0136C106.989 23.2714 105.618 24.4949 103.344 24.4949C100.792 24.4949 99.6176 23.1078 98.8912 21.7637L111.095 16.7314L110.463 15.2616C109.286 12.384 106.54 9.97767 102.91 9.97767L102.901 9.98628L102.908 9.98542ZM27.3251 12.7596H14.3582V16.5832H23.553C23.1017 21.9421 18.6119 24.2252 14.3764 24.2252C8.95791 24.2252 4.22769 19.9915 4.22769 14.0588C4.22769 8.2804 8.72357 3.83048 14.3825 3.83048C18.7395 3.83048 21.3086 6.59348 21.3086 6.59348L23.9992 3.82531C23.9992 3.82531 20.5439 5.29185e-06 14.2341 5.29185e-06C6.21265 -0.00688714 0 6.72013 0 13.983C0 21.0995 5.84118 28.0436 14.4406 28.0436C22.009 28.0436 27.5464 22.9001 27.5464 15.2926C27.5464 13.6901 27.3094 12.7596 27.3094 12.7596H27.3251ZM103.069 13.4489C104.731 13.4489 105.925 14.3259 106.432 15.377L98.2993 18.7543C97.9477 16.1473 100.441 13.4601 103.071 13.4601L103.069 13.4489ZM77.2771 10.0026C72.395 10.0026 68.557 14.257 68.557 19.0128C68.557 24.4406 73.0008 28.0419 77.1929 28.0419C79.7793 28.0419 81.1507 27.0252 82.1748 25.8535V27.6283C82.1748 30.7454 80.2654 32.6064 77.4012 32.6064C74.6238 32.6064 73.2351 30.5559 72.7491 29.3971L69.2609 30.8436C70.4994 33.4455 72.993 36.1577 77.4298 36.1577C82.2833 36.1577 85.9833 33.1216 85.9833 26.7582V10.5523H82.1757V12.0799C81.004 10.8392 79.4035 10.0121 77.2771 10.0121V10.0035V10.0026Z" fill="#ffffff"/>
  </g>
</svg>
