<svg width="122" height="16" viewBox="0 0 122 16" fill="none" xmlns="http://www.w3.org/2000/svg">
<path d="M21.9557 6.18399V4.10956L19.0498 4.33676V15.272H21.9557V9.33515C21.9557 8.28805 22.3492 7.41877 23.0454 6.80632C23.7416 6.19387 24.7405 5.83825 25.9816 5.83825C26.8191 5.83825 27.485 6.11484 27.939 6.59888C28.3931 7.08291 28.6554 7.79414 28.6554 8.66343V15.272H31.5613V7.91268C31.5613 6.74705 31.1376 5.77898 30.3304 5.11714C29.5131 4.4553 28.3426 4.11944 26.92 4.11944C25.8504 4.11944 24.8213 4.32688 23.9233 4.72201C23.1262 5.07763 22.4501 5.58142 21.9557 6.18399Z" fill="white"/>
<path fill-rule="evenodd" clip-rule="evenodd" d="M47.7461 15.2619V0L44.8402 0.227199V5.81828C43.6092 4.7218 42.0049 4.11922 40.2795 4.11922C38.5441 4.11922 37.0609 4.62301 36.0115 5.60096C34.942 6.58878 34.387 8.00137 34.387 9.67079C34.387 11.4192 34.9622 12.8812 36.0115 13.8987C37.0508 14.9161 38.5441 15.4891 40.33 15.4891C42.2471 15.4891 43.9725 14.8075 45.0924 13.5925V15.2718L47.7461 15.2619ZM38.4533 6.84562C39.0889 6.12451 39.9768 5.67999 41.0161 5.67999C42.126 5.67999 43.0845 6.12451 43.7707 6.84562C44.4568 7.56673 44.8805 8.58419 44.8805 9.77945C44.8805 11.0142 44.477 12.0416 43.8009 12.7726C43.1249 13.4937 42.1664 13.9184 41.0262 13.9184C39.9668 13.9184 39.0688 13.4937 38.4331 12.7627C37.7974 12.0317 37.414 10.9846 37.414 9.73006C37.4241 8.56443 37.8277 7.56673 38.4533 6.84562Z" fill="white"/>
<path fill-rule="evenodd" clip-rule="evenodd" d="M78.0453 5.72964C77.8233 5.34439 77.4803 5.03816 77.0262 4.81096C76.1484 4.33681 74.7459 4.11949 72.7986 4.11949C70.9925 4.11949 68.9745 4.35656 67.0473 4.75169L66.8657 4.7912L67.35 6.00623L67.4711 5.98647C69.2368 5.75927 70.831 5.68025 72.3243 5.68025C73.5049 5.68025 74.302 5.80867 74.7964 6.0655C75.0385 6.19392 75.2101 6.35197 75.311 6.52978C75.4219 6.71746 75.4724 6.94466 75.4724 7.21137V8.00163C75.4724 8.00163 71.6988 8.21896 70.4476 8.30786C69.1057 8.43628 68.0059 8.83141 67.2491 9.46361C66.4823 10.0958 66.0686 10.9651 66.0686 11.9924C66.0686 13.1284 66.5327 14.0175 67.4408 14.6201C68.2985 15.193 69.5496 15.4795 71.0328 15.4795C72.4656 15.4795 74.2717 15.1337 75.7045 13.4939V15.2621H78.3682V7.09284C78.3682 6.55941 78.2673 6.10501 78.0453 5.72964ZM75.4825 11.4393C75.4825 11.9628 75.1293 12.5357 74.4937 12.9803C73.8378 13.4248 73.1013 13.731 71.9712 13.731C71.053 13.731 70.3467 13.5631 69.8624 13.2569C69.3579 12.9309 69.0956 12.4468 69.0956 11.8048C69.0956 11.1627 69.3175 10.6391 69.701 10.2539C70.0844 9.86862 70.6595 9.62167 71.3759 9.55252C72.395 9.47349 75.4825 9.27593 75.4825 9.27593V11.4393Z" fill="white"/>
<path d="M83.6251 4.33621H80.2753L86.0871 15.2714H88.3472L94.2801 4.33621H92.3327L87.9133 12.4858L83.6251 4.33621Z" fill="white"/>
<path fill-rule="evenodd" clip-rule="evenodd" d="M101.979 4.11949C99.9715 4.11949 98.2259 4.62328 96.9647 5.59134C95.6429 6.6088 94.9467 8.07078 94.9467 9.79947C94.9467 11.5282 95.6429 12.9803 96.9647 13.9977C98.236 14.9757 99.9715 15.4893 101.979 15.4893C103.977 15.4893 105.713 14.9757 106.964 13.9977C108.275 12.9803 108.962 11.5183 108.962 9.79947C108.962 8.07078 108.265 6.6088 106.964 5.59134C105.703 4.62328 103.977 4.11949 101.979 4.11949ZM99.1239 6.78661C99.8302 6.04574 100.809 5.54195 101.959 5.54195C104.27 5.54195 105.894 7.2904 105.894 9.75996C105.904 11.0046 105.47 12.0418 104.774 12.7827C104.078 13.5334 103.099 14.0471 101.959 14.0471C100.809 14.0471 99.8302 13.5334 99.1239 12.7827C98.4176 12.032 97.9837 10.9947 97.9837 9.75996C97.9837 8.54494 98.4277 7.5176 99.1239 6.78661Z" fill="white"/>
<path d="M114.57 6.71741V4.10956L111.664 4.33676V15.272H114.57V10.6786C114.57 9.42405 114.954 8.3572 115.67 7.60646C116.417 6.8162 116.931 6.37168 117.86 6.09509C118.566 5.88764 119.081 5.87776 119.676 5.87776C119.817 5.87776 119.968 5.87776 120.13 5.87776H120.221L121.099 4.2281L120.887 4.19846C120.544 4.14907 119.868 4.11944 119.363 4.11944C117.406 4.11944 115.6 5.10726 114.57 6.71741Z" fill="white"/>
<path fill-rule="evenodd" clip-rule="evenodd" d="M3.35994 8.76226C3.88462 6.03586 6.71988 4.11949 9.72668 4.11949C14.2671 4.11949 15.9017 7.32004 15.9017 9.04873C15.9017 9.40434 15.8311 9.68093 15.6293 9.86862C15.4275 10.0563 15.145 10.1156 14.8019 10.1156H6.14476C6.29611 11.3602 6.87123 12.3085 7.69861 12.9506C8.56634 13.6322 9.72668 13.978 10.9778 13.978C12.5014 13.978 13.8535 13.6421 15.2156 13.0889L15.3568 13.0297L15.8714 14.2447L15.7302 14.304C13.7324 15.1831 11.9364 15.4795 9.88812 15.4795C8.14256 15.4795 6.48781 14.9954 5.26694 14.0274C4.13687 13.1284 3.39021 11.8146 3.27922 10.1057H0L0.736564 8.76226H3.35994ZM6.15485 8.76226H11.7447C12.2996 8.76226 12.6427 8.68323 12.8445 8.56469C13.0261 8.45603 13.1068 8.2881 13.1068 8.07078C13.1068 6.90515 11.8355 5.49256 9.73677 5.49256C8.61679 5.49256 7.76923 5.90745 7.16384 6.54953C6.61898 7.14223 6.27593 7.94236 6.15485 8.76226Z" fill="white"/>
<path fill-rule="evenodd" clip-rule="evenodd" d="M57.2498 4.11949C53.9101 4.11949 50.8024 6.48038 50.8024 9.68093C50.8024 11.6072 51.5793 13.0692 52.8002 14.0372C54.021 15.0053 55.6758 15.4893 57.4213 15.4893C59.4696 15.4893 61.2656 15.1831 63.2634 14.3138L63.4047 14.2546L62.8901 13.0395L62.7488 13.0988C61.3867 13.652 60.0346 13.9878 58.5111 13.9878C57.2599 13.9878 56.1097 13.6322 55.2318 12.9605C54.4045 12.3184 53.8192 11.3701 53.678 10.1255H62.325C62.6681 10.1255 62.9607 10.0662 63.1524 9.8785C63.3542 9.69081 63.4248 9.41422 63.4248 9.0586C63.4349 7.32003 61.7903 4.11949 57.2498 4.11949ZM59.2779 8.76226H53.6881C53.8092 7.93248 54.1421 7.14223 54.7072 6.54953C55.3025 5.91733 56.1601 5.49256 57.2801 5.49256C59.3687 5.49256 60.6501 6.90515 60.6501 8.07078C60.6501 8.2881 60.5795 8.45603 60.3878 8.56469C60.186 8.69311 59.8429 8.77213 59.2779 8.76226Z" fill="white"/>
</svg>
